<svg xmlns="http://www.w3.org/2000/svg" viewBox="0 0 60 75" x="0px" y="0px">
  <path d="M49.279,22.01c4.121-4.266,5.006-10.147,1.937-13.228S42.256,6.6,37.99,10.721C37.88,4.785,34.343,0,30,0s-7.88,4.785-7.99,10.721C17.745,6.6,11.864,5.715,8.782,8.784,5.715,11.863,6.6,17.745,10.721,22.01,4.785,22.12,0,25.657,0,30s4.785,7.88,10.721,7.99C6.6,42.255,5.715,48.137,8.784,51.218a6.649,6.649,0,0,0,4.8,1.832,12.563,12.563,0,0,0,8.423-3.774C22.118,55.213,25.657,60,30,60s7.882-4.787,7.99-10.724a12.561,12.561,0,0,0,8.422,3.774,6.663,6.663,0,0,0,4.806-1.834c3.067-3.079,2.182-8.961-1.939-13.226C55.215,37.88,60,34.343,60,30S55.215,22.12,49.279,22.01ZM39.2,12.326c3.5-3.511,8.259-4.467,10.6-2.13s1.383,7.1-2.129,10.607c-.46.46-.921.888-1.38,1.306A21.6,21.6,0,0,0,36.228,24.99a8.155,8.155,0,0,0-1.218-1.218,21.6,21.6,0,0,0,2.881-10.065C38.309,13.248,38.737,12.787,39.2,12.326ZM36,30a6,6,0,1,1-6-6A6.006,6.006,0,0,1,36,30ZM30,2c3.309,0,6,4.037,6,9,0,4.9-1,9.186-2.7,11.723a7.911,7.911,0,0,0-6.606,0C25,20.185,24,15.9,24,11,24,6.037,26.691,2,30,2ZM10.2,10.2c2.347-2.336,7.1-1.383,10.607,2.129.46.46.888.921,1.306,1.38A21.6,21.6,0,0,0,24.99,23.772a8.155,8.155,0,0,0-1.218,1.218,21.6,21.6,0,0,0-10.065-2.881c-.459-.418-.92-.846-1.381-1.307C8.815,17.3,7.86,12.542,10.2,10.2ZM2,30c0-3.309,4.037-6,9-6,4.9,0,9.186,1,11.723,2.7a7.911,7.911,0,0,0,0,6.606C20.185,35,15.9,36,11,36,6.037,36,2,33.309,2,30ZM20.8,47.674c-3.5,3.511-8.259,4.467-10.6,2.13S8.815,42.7,12.327,39.2c.46-.46.921-.888,1.38-1.306A21.6,21.6,0,0,0,23.772,35.01a8.155,8.155,0,0,0,1.218,1.218,21.6,21.6,0,0,0-2.881,10.065C21.691,46.752,21.263,47.213,20.8,47.674ZM30,58c-3.309,0-6-4.037-6-9,0-4.9,1-9.185,2.7-11.722a7.911,7.911,0,0,0,6.606,0C35,39.814,36,44.1,36,49,36,53.963,33.309,58,30,58Zm19.8-8.2C47.458,52.137,42.7,51.185,39.2,47.673c-.46-.46-.888-.921-1.306-1.38A21.6,21.6,0,0,0,35.01,36.228a8.155,8.155,0,0,0,1.218-1.218,21.6,21.6,0,0,0,10.065,2.881c.459.418.92.846,1.381,1.307C51.185,42.7,52.14,47.458,49.8,49.8ZM49,36c-4.9,0-9.185-1-11.722-2.7a7.911,7.911,0,0,0,0-6.606C39.814,25,44.1,24,49,24c4.963,0,9,2.691,9,6S53.963,36,49,36Z"/>
</svg>
